<svg width="24" height="24" viewBox="0 0 24 24" fill="none" xmlns="http://www.w3.org/2000/svg">
<g id="ph:google-logo-bold">
<path id="Vector" d="M12 21.375C10.4581 21.3753 8.93997 20.9954 7.58003 20.2688C6.2201 19.5421 5.06037 18.4913 4.2036 17.2094C3.34682 15.9275 2.81945 14.4541 2.6682 12.9196C2.51695 11.3852 2.7465 9.83714 3.33651 8.41261C3.92651 6.98809 4.85876 5.73108 6.05065 4.75294C7.24255 3.77481 8.6573 3.10574 10.1696 2.80503C11.6818 2.50432 13.2449 2.58123 14.7204 3.02897C16.1958 3.47671 17.538 4.28144 18.6281 5.37188C18.733 5.47639 18.8162 5.60058 18.873 5.73733C18.9298 5.87408 18.959 6.02068 18.959 6.16875C18.959 6.31682 18.9298 6.46343 18.873 6.60017C18.8162 6.73692 18.733 6.86111 18.6281 6.96563C18.4147 7.17295 18.1288 7.28892 17.8312 7.28892C17.5337 7.28892 17.2478 7.17295 17.0344 6.96563C16.376 6.30043 15.5918 5.77298 14.7274 5.41404C13.8631 5.05511 12.9359 4.87186 12 4.875C10.6391 4.87596 9.30692 5.26664 8.16106 6.00085C7.01519 6.73506 6.10357 7.78208 5.534 9.01806C4.96444 10.2541 4.76077 11.6273 4.94707 12.9754C5.13338 14.3235 5.70187 15.59 6.5853 16.6252C7.46874 17.6604 8.63016 18.4209 9.93221 18.8168C11.2343 19.2127 12.6224 19.2275 13.9326 18.8593C15.2428 18.4911 16.4201 17.7554 17.3253 16.7392C18.2305 15.723 18.8257 14.4688 19.0406 13.125H12C11.7016 13.125 11.4155 13.0065 11.2045 12.7955C10.9935 12.5845 10.875 12.2984 10.875 12C10.875 11.7016 10.9935 11.4155 11.2045 11.2045C11.4155 10.9935 11.7016 10.875 12 10.875H20.25C20.5484 10.875 20.8345 10.9935 21.0455 11.2045C21.2565 11.4155 21.375 11.7016 21.375 12C21.37 14.4849 20.3807 16.8666 18.6236 18.6237C16.8666 20.3807 14.4849 21.37 12 21.375Z" fill="black"/>
</g>
</svg>
