<svg width="363" height="370" viewBox="0 0 363 370" fill="none" xmlns="http://www.w3.org/2000/svg">
<g clip-path="url(#clip0_1_4)">
<path d="M357.745 347H0.290809C0.252619 347 0.214804 346.992 0.179521 346.977C0.144239 346.962 0.11218 346.94 0.085176 346.912C0.0581719 346.884 0.036751 346.851 0.0221365 346.815C0.007522 346.778 0 346.739 0 346.7C0 346.66 0.007522 346.621 0.0221365 346.584C0.036751 346.548 0.0581719 346.515 0.085176 346.487C0.11218 346.459 0.144239 346.437 0.179521 346.422C0.214804 346.407 0.252619 346.399 0.290809 346.399H357.745C357.822 346.399 357.896 346.431 357.95 346.487C358.005 346.543 358.035 346.62 358.035 346.7C358.035 346.779 358.005 346.856 357.95 346.912C357.896 346.968 357.822 347 357.745 347H357.745Z" fill="#292A2E"/>
<g opacity="0.65">
<path d="M357.745 347H0.290809C0.252619 347 0.214804 346.992 0.179521 346.977C0.144239 346.962 0.11218 346.94 0.085176 346.912C0.0581719 346.884 0.036751 346.851 0.0221365 346.815C0.007522 346.778 0 346.739 0 346.7C0 346.66 0.007522 346.621 0.0221365 346.584C0.036751 346.548 0.0581719 346.515 0.085176 346.487C0.11218 346.459 0.144239 346.437 0.179521 346.422C0.214804 346.407 0.252619 346.399 0.290809 346.399H357.745C357.822 346.399 357.896 346.431 357.95 346.487C358.005 346.543 358.035 346.62 358.035 346.7C358.035 346.779 358.005 346.856 357.95 346.912C357.896 346.968 357.822 347 357.745 347H357.745Z" fill="#292A2E"/>
</g>
<path d="M25.177 346.471L24.3611 346.309L37.1134 215.344L37.9294 215.507L25.177 346.471Z" fill="#494949"/>
<path d="M72.6611 346.471L71.8451 346.309L84.5975 215.344L85.413 215.507L72.6611 346.471Z" fill="#494949"/>
<path d="M177.621 346.471L178.437 346.309L165.685 215.344L164.869 215.507L177.621 346.471Z" fill="#494949"/>
<path d="M130.138 346.471L130.953 346.309L118.201 215.344L117.385 215.507L130.138 346.471Z" fill="#494949"/>
<path d="M113.226 157.707L112.402 157.82L119.852 215.484L120.675 215.37L113.226 157.707Z" fill="#494949"/>
<path d="M27.7177 157.706L26.8941 157.82L34.3438 215.483L35.1674 215.369L27.7177 157.706Z" fill="#494949"/>
<path d="M120.604 211.203H36.9676C34.711 211.203 32.8817 213.093 32.8817 215.425V215.426C32.8817 217.758 34.711 219.649 36.9676 219.649H120.604C122.861 219.649 124.69 217.758 124.69 215.426V215.425C124.69 213.093 122.861 211.203 120.604 211.203Z" fill="#292A2E"/>
<path opacity="0.8" d="M120.604 211.203H36.9676C34.711 211.203 32.8817 213.093 32.8817 215.425V215.426C32.8817 217.758 34.711 219.649 36.9676 219.649H120.604C122.861 219.649 124.69 217.758 124.69 215.426V215.425C124.69 213.093 122.861 211.203 120.604 211.203Z" fill="white"/>
<path d="M120.603 220.078H36.9676C35.7812 220.066 34.6473 219.571 33.8124 218.7C32.9775 217.828 32.5091 216.652 32.5091 215.426C32.5091 214.2 32.9775 213.023 33.8124 212.152C34.6473 211.281 35.7812 210.785 36.9676 210.773H120.603C121.789 210.785 122.923 211.281 123.758 212.152C124.593 213.023 125.061 214.2 125.061 215.426C125.061 216.652 124.593 217.828 123.758 218.7C122.923 219.571 121.789 220.066 120.603 220.078ZM36.9676 211.632C36.0009 211.643 35.0772 212.047 34.3972 212.757C33.7172 213.468 33.3358 214.427 33.3358 215.426C33.3358 216.425 33.7172 217.384 34.3972 218.094C35.0772 218.804 36.0009 219.209 36.9676 219.219H120.603C121.569 219.209 122.493 218.804 123.173 218.094C123.853 217.384 124.234 216.425 124.234 215.426C124.234 214.427 123.853 213.468 123.173 212.757C122.493 212.047 121.569 211.643 120.603 211.632H36.9676Z" fill="#292A2E"/>
<path d="M166.508 211.203H82.8718C80.6152 211.203 78.7859 213.093 78.7859 215.425V215.426C78.7859 217.758 80.6152 219.649 82.8718 219.649H166.508C168.765 219.649 170.594 217.758 170.594 215.426V215.425C170.594 213.093 168.765 211.203 166.508 211.203Z" fill="white"/>
<path d="M166.509 220.078H82.8722C82.2774 220.084 81.6874 219.968 81.1362 219.737C80.585 219.506 80.0837 219.164 79.6611 218.731C79.2385 218.299 78.903 217.784 78.674 217.216C78.4451 216.649 78.3272 216.04 78.3272 215.426C78.3272 214.811 78.4451 214.202 78.674 213.635C78.903 213.068 79.2385 212.553 79.6611 212.12C80.0837 211.688 80.585 211.346 81.1362 211.115C81.6874 210.884 82.2774 210.768 82.8722 210.773H166.509C167.104 210.768 167.694 210.884 168.245 211.115C168.796 211.346 169.297 211.688 169.72 212.12C170.143 212.553 170.478 213.068 170.707 213.635C170.936 214.202 171.054 214.811 171.054 215.426C171.054 216.04 170.936 216.649 170.707 217.216C170.478 217.784 170.143 218.299 169.72 218.731C169.297 219.164 168.796 219.506 168.245 219.737C167.694 219.968 167.104 220.084 166.509 220.078ZM82.8722 211.632C82.3869 211.627 81.9053 211.721 81.4555 211.909C81.0056 212.098 80.5963 212.376 80.2513 212.729C79.9063 213.082 79.6324 213.502 79.4455 213.965C79.2585 214.427 79.1623 214.924 79.1623 215.426C79.1623 215.927 79.2585 216.424 79.4455 216.887C79.6324 217.35 79.9063 217.77 80.2513 218.122C80.5963 218.475 81.0056 218.754 81.4555 218.942C81.9053 219.13 82.3869 219.225 82.8722 219.219H166.509C166.994 219.225 167.476 219.13 167.925 218.942C168.375 218.754 168.785 218.475 169.13 218.122C169.475 217.77 169.749 217.35 169.935 216.887C170.122 216.424 170.219 215.927 170.219 215.426C170.219 214.924 170.122 214.427 169.935 213.965C169.749 213.502 169.475 213.082 169.13 212.729C168.785 212.376 168.375 212.098 167.925 211.909C167.476 211.721 166.994 211.627 166.509 211.632H82.8722Z" fill="#292A2E"/>
<path d="M108.644 157.762H27.5304C26.2043 157.762 24.9235 157.264 23.9271 156.359C22.9307 155.455 22.2868 154.207 22.1156 152.848L16.7502 110.265C16.6498 109.469 16.7149 108.66 16.9412 107.892C17.1674 107.124 17.5496 106.415 18.0621 105.812C18.5746 105.209 19.2058 104.726 19.9134 104.395C20.621 104.064 21.3887 103.892 22.1654 103.892H103.279C104.605 103.892 105.886 104.391 106.882 105.296C107.878 106.2 108.522 107.448 108.694 108.807L114.059 151.39C114.159 152.186 114.094 152.995 113.868 153.763C113.642 154.53 113.259 155.24 112.747 155.843C112.235 156.446 111.603 156.929 110.896 157.26C110.188 157.591 109.421 157.762 108.644 157.762Z" fill="#292A2E"/>
<path opacity="0.8" d="M108.644 157.762H27.5304C26.2043 157.762 24.9235 157.264 23.9271 156.359C22.9307 155.455 22.2868 154.207 22.1156 152.848L16.7502 110.265C16.6498 109.469 16.7149 108.66 16.9412 107.892C17.1674 107.124 17.5496 106.415 18.0621 105.812C18.5746 105.209 19.2058 104.726 19.9134 104.395C20.621 104.064 21.3887 103.892 22.1654 103.892H103.279C104.605 103.892 105.886 104.391 106.882 105.296C107.878 106.2 108.522 107.448 108.694 108.807L114.059 151.39C114.159 152.186 114.094 152.995 113.868 153.763C113.642 154.53 113.259 155.24 112.747 155.843C112.235 156.446 111.603 156.929 110.896 157.26C110.188 157.591 109.421 157.762 108.644 157.762Z" fill="white"/>
<path d="M108.644 158.192H27.5304C26.1044 158.188 24.728 157.651 23.6564 156.678C22.5849 155.706 21.891 154.365 21.7035 152.904L16.338 110.321C16.2301 109.465 16.3002 108.594 16.5436 107.768C16.787 106.942 17.1982 106.178 17.7497 105.529C18.3012 104.881 18.9803 104.361 19.7417 104.004C20.5031 103.648 21.3293 103.464 22.165 103.464H103.279C104.705 103.467 106.082 104.005 107.153 104.978C108.225 105.951 108.919 107.292 109.106 108.753L114.471 151.335C114.579 152.192 114.509 153.062 114.266 153.889C114.022 154.715 113.611 155.478 113.059 156.127C112.508 156.776 111.829 157.296 111.067 157.652C110.306 158.008 109.48 158.193 108.644 158.193V158.192ZM22.165 104.322C21.4475 104.322 20.7381 104.48 20.0844 104.786C19.4307 105.092 18.8477 105.538 18.3742 106.095C17.9007 106.653 17.5477 107.308 17.3387 108.017C17.1297 108.727 17.0696 109.474 17.1623 110.209L22.5273 152.792C22.6883 154.047 23.284 155.198 24.2041 156.033C25.1241 156.868 26.306 157.33 27.5304 157.333H108.644C109.362 157.333 110.071 157.175 110.725 156.869C111.379 156.563 111.962 156.116 112.436 155.559C112.909 155.002 113.262 154.346 113.471 153.637C113.68 152.927 113.74 152.18 113.647 151.444L108.282 108.862C108.121 107.607 107.525 106.456 106.605 105.621C105.685 104.786 104.503 104.325 103.279 104.322H22.165Z" fill="#292A2E"/>
<path d="M113.231 157.762H32.1173C30.7912 157.762 29.5103 157.264 28.5138 156.359C27.5173 155.455 26.8734 154.207 26.702 152.848L21.3366 110.265C21.2364 109.469 21.3016 108.66 21.5279 107.892C21.7542 107.124 22.1364 106.415 22.6489 105.812C23.1614 105.209 23.7925 104.726 24.5 104.395C25.2075 104.064 25.9752 103.893 26.7519 103.892H107.866C109.192 103.892 110.473 104.391 111.469 105.296C112.465 106.2 113.109 107.448 113.281 108.807L118.646 151.39C118.746 152.186 118.681 152.995 118.455 153.763C118.229 154.53 117.846 155.24 117.334 155.843C116.821 156.446 116.19 156.929 115.483 157.26C114.775 157.591 114.008 157.762 113.231 157.762Z" fill="white"/>
<path d="M113.231 158.192H32.1173C30.6913 158.188 29.3148 157.651 28.2432 156.678C27.1717 155.706 26.4778 154.365 26.2904 152.904L20.9249 110.321C20.817 109.465 20.8871 108.594 21.1305 107.768C21.3739 106.942 21.7851 106.178 22.3366 105.529C22.8881 104.881 23.5672 104.361 24.3286 104.004C25.09 103.648 25.9161 103.464 26.7519 103.464H107.866C109.292 103.467 110.668 104.005 111.74 104.978C112.812 105.95 113.505 107.292 113.693 108.753L119.058 151.335C119.166 152.192 119.096 153.062 118.852 153.889C118.609 154.715 118.198 155.478 117.646 156.127C117.095 156.776 116.416 157.296 115.654 157.652C114.893 158.008 114.067 158.193 113.231 158.193V158.192ZM26.7519 104.322C26.0343 104.322 25.325 104.48 24.6713 104.786C24.0175 105.092 23.4345 105.538 22.961 106.095C22.4874 106.653 22.1344 107.308 21.9253 108.017C21.7163 108.727 21.6561 109.474 21.7488 110.209L27.1142 152.792C27.275 154.047 27.8707 155.198 28.7908 156.033C29.7109 156.868 30.8928 157.33 32.1173 157.333H113.231C113.949 157.333 114.658 157.175 115.312 156.869C115.966 156.563 116.549 156.117 117.023 155.559C117.496 155.002 117.849 154.346 118.058 153.637C118.267 152.927 118.327 152.18 118.235 151.444L112.869 108.862C112.708 107.607 112.113 106.455 111.193 105.62C110.272 104.785 109.09 104.323 107.866 104.321L26.7519 104.322Z" fill="#292A2E"/>
<path d="M227.629 324.568C227.629 324.568 229.857 336.501 240.667 337.166C251.478 337.83 249.134 346.732 249.134 346.732H207.821V325.4L227.629 324.568Z" fill="black"/>
<path d="M149.032 317.034C149.032 317.034 145.934 328.757 155.351 334.286C164.768 339.815 158.863 346.732 158.863 346.732L121.792 327.883L130.903 308.742L149.032 317.034Z" fill="black"/>
<path d="M115.766 38.9764C115.766 38.9764 121.156 34.7718 122.492 25.0934C123.526 17.5996 116.837 22.4542 116.837 22.4542C116.837 22.4542 117.531 17.0513 113.722 17.5871C109.912 18.1229 107.781 23.7998 107.781 23.7998" fill="#0C0C0C"/>
<path d="M94.0343 18.2195C94.0343 18.2195 75.1338 20.3139 81.9661 46.7823L83.6387 46.8978L87.0337 47.1331" fill="#0C0C0C"/>
<path d="M112.601 74.4246C112.518 74.4135 111.595 90.2246 93.8203 88.8473C81.5149 87.895 77.1275 74.4023 76.8454 74.4023C78.1723 74.1108 79.8116 73.6686 80.4635 73.5166C81.8835 73.1759 83.1696 72.3964 84.1505 71.2819C85.1314 70.1673 85.7608 68.7705 85.9548 67.2773C86.315 65.0361 85.7055 53.5691 85.892 51.3012L104.781 55.6587C104.517 60.4481 102.67 71.5514 109.143 73.5166C110.222 73.8416 111.382 74.1404 112.601 74.4246Z" fill="#E98862"/>
<path opacity="0.52" d="M105.046 68.9788C104.751 67.9934 104.56 66.9775 104.478 65.9493C104.271 63.6027 104.313 61.2396 104.603 58.9024C100.763 58.3669 97.1466 56.7291 94.1631 54.1753C93.8124 55.514 91.8835 61.3634 92.4182 62.636C93.4257 65.0408 98.1687 68.9788 105.046 68.9788Z" fill="#0C0C0C"/>
<path d="M101.148 65.8493C93.6957 65.1584 84.7766 60.2926 84.6482 49.8384L84.5319 40.4061C84.4035 29.9519 89.6119 21.4075 99.1363 21.2825C108.66 21.1571 115.884 29.5384 116.012 39.9922L116.063 44.168C116.057 45.6022 115.956 47.0343 115.761 48.4542C115.272 52.211 114.514 57.9226 112.048 61.7868C109.718 65.4341 105.908 66.2906 101.148 65.8493Z" fill="#E98862"/>
<path d="M104.605 56.2937C106.143 56.3657 107.676 56.0632 109.079 55.4105C109.108 55.3977 109.135 55.3791 109.157 55.3558C109.179 55.3325 109.196 55.305 109.208 55.2747C109.22 55.2444 109.226 55.2121 109.225 55.1795C109.225 55.1469 109.219 55.1146 109.206 55.0846C109.194 55.0546 109.176 55.0275 109.153 55.0046C109.131 54.9818 109.104 54.9638 109.075 54.9517C109.045 54.9395 109.014 54.9334 108.983 54.9338C108.951 54.9341 108.92 54.9409 108.891 54.9537C105.866 56.2868 103.12 56.0915 100.949 54.3891C100.905 54.3533 100.859 54.3199 100.812 54.2891C100.758 54.2629 100.696 54.2589 100.638 54.2777C100.581 54.2965 100.533 54.3368 100.503 54.3907C100.473 54.4446 100.463 54.5081 100.476 54.5688C100.489 54.6294 100.524 54.6828 100.573 54.7184C100.591 54.7296 100.619 54.7523 100.656 54.7837C101.798 55.6821 103.173 56.2079 104.605 56.2937Z" fill="#0C0C0C"/>
<path d="M104.533 58.6487C104.811 58.6666 105.09 58.6597 105.367 58.6281C105.43 58.6211 105.488 58.5884 105.528 58.5372C105.568 58.486 105.587 58.4205 105.58 58.355C105.573 58.2895 105.542 58.2295 105.492 58.1881C105.443 58.1467 105.379 58.1274 105.316 58.1343C103.651 58.3172 102.857 57.5289 102.823 57.495C102.778 57.4505 102.717 57.4261 102.655 57.427C102.592 57.4279 102.532 57.454 102.488 57.4997C102.444 57.5454 102.418 57.6072 102.418 57.6719C102.417 57.7366 102.44 57.7991 102.483 57.8462C103.056 58.3502 103.781 58.6337 104.533 58.6487Z" fill="#0C0C0C"/>
<path d="M112.867 46.1783C113.515 46.1783 114.04 45.6354 114.04 44.9658C114.04 44.2961 113.515 43.7533 112.867 43.7533C112.219 43.7533 111.693 44.2961 111.693 44.9658C111.693 45.6354 112.219 46.1783 112.867 46.1783Z" fill="#0C0C0C"/>
<path d="M101.405 45.435C102.053 45.435 102.579 44.8922 102.579 44.2226C102.579 43.5529 102.053 43.0101 101.405 43.0101C100.758 43.0101 100.232 43.5529 100.232 44.2226C100.232 44.8922 100.758 45.435 101.405 45.435Z" fill="#0C0C0C"/>
<path d="M85.2788 53.0156C82.3845 53.0538 79.999 49.8844 79.9612 46.8931C79.9234 43.9019 82.2503 42.2218 85.1447 42.1836L86.6606 44.1681L87.7665 52.983L85.2788 53.0156Z" fill="#E98862"/>
<path d="M88.1566 48.2091C88.1566 48.2091 89.1341 33.4167 93.4743 32.5035C96.3649 31.8951 103.375 36.1324 109.867 34.8525C112.708 34.2943 115.405 35.0195 115.679 36.4059C115.787 36.955 117.557 29.064 113.109 23.0772C109.567 18.3114 97.9772 16.9633 92.7044 18.5261C78.1046 22.8548 84.5473 42.8349 84.5473 42.8349L85.1983 47.9343L88.1566 48.2091Z" fill="#0C0C0C"/>
<path d="M106.353 52.8027C106.359 52.8031 106.365 52.8031 106.372 52.8027C107.304 52.7928 108.868 52.6691 108.861 51.9478C108.855 51.3502 107.21 44.9173 107.022 44.1857C107.001 44.1286 106.961 44.0816 106.908 44.0537C106.856 44.0259 106.795 44.0191 106.738 44.0348C106.681 44.0505 106.632 44.0875 106.6 44.1386C106.568 44.1897 106.555 44.2513 106.565 44.3115C107.296 47.1606 108.384 51.5468 108.389 51.9539C108.298 52.1256 107.335 52.302 106.369 52.3124C106.308 52.3137 106.25 52.3392 106.207 52.3835C106.164 52.4278 106.138 52.4876 106.137 52.5506C106.135 52.6135 106.157 52.6748 106.197 52.7217C106.238 52.7686 106.294 52.7976 106.355 52.8027H106.353Z" fill="#0C0C0C"/>
<path d="M109.537 38.3916C110.517 38.1128 111.552 38.1128 112.532 38.3916C113.014 38.5253 113.473 38.7332 113.895 39.0081C114.312 39.2773 114.694 39.5999 115.033 39.9682C115.098 40.0331 115.135 40.1218 115.138 40.2151C115.14 40.3085 115.107 40.3991 115.046 40.4676C114.984 40.5361 114.899 40.577 114.809 40.5815C114.719 40.5861 114.63 40.5539 114.563 40.492L114.542 40.4731C114.228 40.1731 113.879 39.915 113.503 39.705C113.134 39.4961 112.737 39.3463 112.324 39.2606C111.513 39.0843 110.671 39.1328 109.883 39.4014L109.85 39.4134C109.72 39.4609 109.577 39.4531 109.452 39.3917C109.328 39.3303 109.232 39.2204 109.186 39.0861C109.141 38.9518 109.148 38.8041 109.207 38.6755C109.267 38.547 109.373 38.4481 109.503 38.4006L109.537 38.3916Z" fill="#0C0C0C"/>
<path d="M102.596 39C101.85 38.6254 101.021 38.4611 100.194 38.5238C99.7747 38.5521 99.3614 38.6459 98.9689 38.8021C98.5698 38.9587 98.1913 39.1664 97.8422 39.4203L97.8198 39.4358C97.7448 39.4854 97.6543 39.5033 97.5669 39.4857C97.4795 39.4682 97.4021 39.4165 97.3506 39.3414C97.2992 39.2664 97.2777 39.1737 97.2906 39.0827C97.3036 38.9917 97.3499 38.9093 97.4201 38.8527C97.8034 38.5344 98.224 38.2673 98.6718 38.0576C99.1254 37.8435 99.6074 37.7008 100.102 37.6342C100.597 37.5623 101.099 37.561 101.595 37.6304C102.103 37.6957 102.6 37.8355 103.071 38.0456C103.198 38.1025 103.297 38.2091 103.348 38.342C103.399 38.4748 103.396 38.623 103.341 38.754C103.286 38.8849 103.183 38.9879 103.054 39.0402C102.926 39.0926 102.782 39.09 102.656 39.033C102.646 39.0288 102.636 39.024 102.627 39.0189L102.596 39Z" fill="#0C0C0C"/>
<path d="M108.142 28.2083C110.284 27.7457 111.487 24.7289 110.828 21.4701C110.17 18.2113 107.899 15.9445 105.756 16.4071C103.614 16.8696 102.411 19.8864 103.07 23.1453C103.729 26.4041 106 28.6709 108.142 28.2083Z" fill="#0C0C0C"/>
<path d="M126.072 313.722L157.334 211.799H100.668C89.2845 211.799 84.5394 201.823 84.5394 190.06C84.5394 178.297 95.7297 167.985 107.112 167.985H183.59C190.533 167.985 198.317 172.373 202.128 178.371C205.938 184.369 204.908 193.663 202.147 200.246L152.087 325.902" fill="#262626"/>
<path opacity="0.8" d="M126.072 313.722L157.334 211.799H100.668C89.2845 211.799 84.5394 201.823 84.5394 190.06C84.5394 178.297 95.7297 167.985 107.112 167.985H183.59C190.533 167.985 198.317 172.373 202.128 178.371C205.938 184.369 204.908 193.663 202.147 200.246L152.087 325.902" fill="#0A0A0A"/>
<path d="M205.445 335.65L153.173 211.799L84.5385 211.794C68.4564 210.491 61.091 201.383 61.3253 189.622C61.5563 178.01 67.2454 166.541 78.4303 166.541H170.937C179.213 166.717 185.724 176.168 188.794 184.112L232.249 328.067" fill="#262626"/>
<path d="M56.6442 166.683C56.6442 166.683 53.5961 187.226 58.4276 198.647C64.4594 212.906 87.0711 211.795 87.0711 211.795L85.7969 166.542L56.6442 166.683Z" fill="#262626"/>
<path d="M190.761 166.279L142.279 155.897C140.258 155.464 138.376 154.512 136.807 153.128C135.237 151.745 134.03 149.974 133.298 147.981L114.23 96.0496C113.649 94.491 113.372 92.8293 113.415 91.1598C113.457 89.4903 113.819 87.846 114.478 86.3213C115.137 84.7965 116.082 83.4215 117.257 82.275C118.432 81.1286 119.815 80.2334 121.325 79.6408C122.836 79.0483 124.445 78.77 126.061 78.8221C127.676 78.8742 129.265 79.2556 130.737 79.9444C132.209 80.6331 133.535 81.6157 134.639 82.8356C135.743 84.0555 136.602 85.4888 137.168 87.053L153.849 132.478L195.74 141.449C195.74 141.449 191.601 166.459 190.761 166.279Z" fill="#1F41BB"/>
<path d="M134.686 109.239C134.126 116.037 130.158 158.447 129.618 166.82H56.6761C56.257 159.268 54.375 126.246 52.7859 111.477C51.2688 97.3853 49.1421 90.9726 50.8895 86.5932C53.9712 78.8697 63.7806 75.4203 70.4235 74.4912C74.4795 73.9236 80.5802 73.5166 80.5802 73.5166C80.5802 73.5166 81.097 84.3159 93.414 84.917C110.181 85.7328 109.061 73.5166 109.144 73.5166C111.86 73.5166 126.646 75.5581 130.343 78.0483C135.565 81.566 137.108 86.3592 137.169 90.7635C137.239 95.8341 135.321 101.528 134.686 109.239Z" fill="#1F41BB"/>
<path d="M131.819 143.891H131.802C131.775 143.888 131.748 143.88 131.724 143.867C131.7 143.855 131.678 143.837 131.661 143.815C131.643 143.794 131.63 143.769 131.621 143.742C131.613 143.715 131.61 143.687 131.612 143.659L133.506 120.15C133.507 120.122 133.514 120.094 133.527 120.069C133.539 120.043 133.556 120.021 133.577 120.002C133.598 119.984 133.622 119.97 133.648 119.962C133.675 119.954 133.702 119.951 133.73 119.954C133.757 119.956 133.783 119.964 133.808 119.977C133.832 119.99 133.853 120.008 133.871 120.029C133.889 120.051 133.902 120.076 133.91 120.103C133.919 120.129 133.922 120.158 133.92 120.186L132.026 143.694C132.021 143.748 131.998 143.798 131.96 143.834C131.921 143.87 131.871 143.89 131.819 143.891Z" fill="#0C0C0C"/>
<path d="M143.546 162.158L159.551 111.313C159.832 110.419 160.379 109.641 161.115 109.089C161.851 108.537 162.736 108.239 163.646 108.239H228.85C229.53 108.239 230.2 108.405 230.805 108.724C231.411 109.043 231.935 109.506 232.334 110.074C232.734 110.643 232.997 111.301 233.103 111.995C233.209 112.688 233.155 113.398 232.945 114.066L216.94 164.911C216.659 165.804 216.112 166.583 215.376 167.135C214.64 167.687 213.755 167.985 212.845 167.985H147.641C146.961 167.985 146.291 167.818 145.686 167.5C145.08 167.181 144.556 166.718 144.157 166.15C143.757 165.581 143.494 164.923 143.388 164.229C143.282 163.536 143.336 162.826 143.546 162.158Z" fill="#292A2E"/>
<path opacity="0.2" d="M143.546 162.158L159.551 111.313C159.832 110.419 160.379 109.641 161.115 109.089C161.851 108.537 162.736 108.239 163.646 108.239H228.85C229.53 108.239 230.2 108.405 230.805 108.724C231.411 109.043 231.935 109.506 232.334 110.074C232.734 110.643 232.997 111.301 233.103 111.995C233.209 112.688 233.155 113.398 232.945 114.066L216.94 164.911C216.659 165.804 216.112 166.583 215.376 167.135C214.64 167.687 213.755 167.985 212.845 167.985H147.641C146.961 167.985 146.291 167.818 145.686 167.5C145.08 167.181 144.556 166.718 144.157 166.15C143.757 165.581 143.494 164.923 143.388 164.229C143.282 163.536 143.336 162.826 143.546 162.158Z" fill="white"/>
<path d="M156.602 163.862H112.954C111.866 163.862 110.985 164.773 110.985 165.897V165.95C110.985 167.074 111.866 167.985 112.954 167.985H156.602C157.689 167.985 158.571 167.074 158.571 165.95V165.897C158.571 164.773 157.689 163.862 156.602 163.862Z" fill="#292A2E"/>
<path opacity="0.2" d="M156.602 163.862H112.954C111.866 163.862 110.985 164.773 110.985 165.897V165.95C110.985 167.074 111.866 167.985 112.954 167.985H156.602C157.689 167.985 158.571 167.074 158.571 165.95V165.897C158.571 164.773 157.689 163.862 156.602 163.862Z" fill="white"/>
<path d="M188.246 147.66C192.022 147.66 195.084 144.496 195.084 140.592C195.084 136.689 192.022 133.525 188.246 133.525C184.469 133.525 181.407 136.689 181.407 140.592C181.407 144.496 184.469 147.66 188.246 147.66Z" fill="white"/>
<path d="M135.347 99.7617H118.009V121.737H135.347V99.7617Z" fill="white"/>
<path d="M118.009 118.087C116.604 118.087 115.231 117.657 114.064 116.85C112.896 116.044 111.986 114.898 111.449 113.557C110.911 112.216 110.771 110.741 111.045 109.318C111.319 107.894 111.995 106.587 112.988 105.56C113.981 104.534 115.246 103.835 116.623 103.552C118.001 103.269 119.428 103.414 120.726 103.97C122.023 104.525 123.132 105.466 123.912 106.672C124.692 107.879 125.109 109.298 125.109 110.749C125.107 112.695 124.358 114.56 123.027 115.936C121.696 117.311 119.891 118.085 118.009 118.087ZM118.009 106.417C117.179 106.417 116.369 106.671 115.679 107.147C114.99 107.623 114.453 108.3 114.135 109.092C113.818 109.883 113.735 110.755 113.897 111.595C114.059 112.435 114.458 113.207 115.044 113.813C115.631 114.419 116.378 114.832 117.191 114.999C118.004 115.166 118.847 115.08 119.613 114.752C120.379 114.424 121.034 113.869 121.494 113.156C121.955 112.444 122.201 111.606 122.201 110.749C122.2 109.6 121.758 108.499 120.972 107.687C120.186 106.875 119.12 106.418 118.009 106.417Z" fill="white"/>
<path d="M119.009 114.005C118.85 113.58 118.553 113.227 118.168 113.007C117.783 112.786 117.336 112.712 116.903 112.799C116.912 112.778 116.916 112.756 116.916 112.734L117.498 112.465C117.905 112.286 118.241 111.967 118.447 111.562C118.653 111.157 118.717 110.691 118.628 110.243C118.567 109.963 118.447 109.7 118.276 109.474C118.105 109.248 117.887 109.064 117.639 108.935C117.391 108.807 117.118 108.737 116.84 108.73C116.563 108.723 116.287 108.781 116.034 108.897L114.662 109.532C114.662 109.526 114.662 109.52 114.659 109.515C114.653 109.503 114.647 109.493 114.639 109.483C114.977 109.22 115.219 108.846 115.325 108.422C115.431 107.999 115.395 107.551 115.223 107.151C114.842 106.086 113.491 106.001 112.599 106.413L109.012 107.908L110.094 106.773C110.434 106.403 110.624 105.914 110.628 105.404C110.631 104.895 110.448 104.403 110.114 104.028C109.934 103.84 109.72 103.693 109.484 103.594C109.248 103.495 108.995 103.447 108.74 103.452C108.485 103.458 108.235 103.517 108.003 103.626C107.771 103.735 107.563 103.892 107.392 104.087L94.6375 118.482L98.9996 122.824C100.354 124.172 102.067 125.072 103.92 125.408C105.772 125.743 107.68 125.499 109.397 124.707L117.171 121.105C117.579 120.926 117.914 120.607 118.12 120.202C118.326 119.797 118.39 119.331 118.301 118.883C118.213 118.48 118.003 118.117 117.701 117.847C117.399 117.577 117.022 117.413 116.624 117.38C116.628 117.358 116.628 117.335 116.624 117.312C116.62 117.29 116.611 117.269 116.599 117.25C116.587 117.231 116.571 117.215 116.553 117.202C116.534 117.19 116.514 117.181 116.492 117.177L117.928 116.515C118.382 116.316 118.746 115.946 118.947 115.48C119.148 115.014 119.17 114.487 119.009 114.005Z" fill="#E98862"/>
<path opacity="0.2" d="M112.068 110.75C112.027 110.75 111.987 110.735 111.955 110.708C111.924 110.681 111.902 110.643 111.894 110.602C111.887 110.56 111.893 110.517 111.913 110.479C111.933 110.442 111.965 110.413 112.003 110.398L114.43 109.41C114.451 109.402 114.474 109.397 114.497 109.398C114.52 109.398 114.543 109.403 114.564 109.413C114.586 109.422 114.605 109.436 114.621 109.453C114.637 109.471 114.65 109.491 114.658 109.513C114.667 109.535 114.671 109.559 114.67 109.583C114.67 109.607 114.665 109.63 114.656 109.652C114.646 109.674 114.633 109.694 114.617 109.711C114.6 109.727 114.58 109.74 114.559 109.749L112.133 110.737C112.112 110.745 112.09 110.749 112.068 110.75Z" fill="#0C0C0C"/>
<path opacity="0.2" d="M113.422 114.295C113.381 114.295 113.342 114.28 113.31 114.253C113.279 114.226 113.257 114.189 113.25 114.148C113.242 114.106 113.248 114.063 113.268 114.026C113.287 113.989 113.319 113.96 113.356 113.944L116.675 112.565C116.718 112.549 116.765 112.552 116.806 112.571C116.847 112.59 116.88 112.625 116.897 112.669C116.914 112.712 116.914 112.761 116.897 112.804C116.88 112.848 116.848 112.883 116.806 112.902L113.488 114.282C113.467 114.291 113.445 114.295 113.422 114.295Z" fill="#0C0C0C"/>
<path opacity="0.2" d="M114.869 118.145C114.828 118.145 114.788 118.13 114.757 118.102C114.725 118.075 114.703 118.037 114.696 117.995C114.689 117.953 114.696 117.91 114.716 117.873C114.737 117.836 114.769 117.807 114.808 117.792L116.39 117.179C116.433 117.162 116.482 117.163 116.524 117.183C116.567 117.203 116.6 117.24 116.617 117.285C116.633 117.33 116.632 117.38 116.613 117.424C116.593 117.468 116.558 117.502 116.514 117.52L114.932 118.133C114.912 118.141 114.891 118.145 114.869 118.145Z" fill="#0C0C0C"/>
<path d="M122.698 85.7835C122.621 85.7835 122.546 85.7618 122.481 85.7205C122.415 85.6793 122.362 85.6203 122.327 85.5499C121.382 83.644 120.205 81.2714 120.337 78.7842C120.443 76.8062 121.34 75.0489 122.207 73.3517C122.767 72.3258 123.244 71.2539 123.634 70.147C124.11 68.6196 124.229 66.9978 123.984 65.4134C123.739 63.8291 123.135 62.327 122.222 61.0294C122.187 60.9842 122.162 60.9324 122.148 60.877C122.133 60.8216 122.13 60.7638 122.137 60.707C122.145 60.6501 122.163 60.5954 122.191 60.546C122.22 60.4967 122.257 60.4537 122.302 60.4196C122.347 60.3855 122.397 60.361 122.451 60.3475C122.505 60.3341 122.561 60.3319 122.616 60.3412C122.671 60.3505 122.723 60.3711 122.77 60.4017C122.817 60.4323 122.858 60.4723 122.89 60.5193C123.881 61.9275 124.538 63.5578 124.805 65.2776C125.072 66.9973 124.942 68.758 124.427 70.4162C124.023 71.5689 123.528 72.6849 122.945 73.7527C122.081 75.4439 121.265 77.0411 121.17 78.8319C121.049 81.0864 122.123 83.2499 123.069 85.1583C123.102 85.2237 123.118 85.2967 123.115 85.3701C123.112 85.4436 123.091 85.5151 123.054 85.5778C123.017 85.6406 122.965 85.6924 122.903 85.7284C122.841 85.7644 122.771 85.7834 122.7 85.7835H122.698Z" fill="white"/>
<path d="M129.368 92.4847C129.276 92.4847 129.187 92.4531 129.114 92.3948C129.041 92.3365 128.989 92.2548 128.966 92.1627C128.943 92.0705 128.95 91.9731 128.987 91.8856C129.023 91.7982 129.087 91.7258 129.167 91.6797C130.707 90.8021 130.879 88.3595 130.156 86.5052C129.797 85.6529 129.377 84.8294 128.9 84.0416C128.262 83.0208 127.743 81.9255 127.355 80.7785C126.958 79.3802 126.933 77.8971 127.283 76.4854C127.632 75.0736 128.343 73.7852 129.341 72.7557C129.421 72.6776 129.527 72.635 129.636 72.6372C129.746 72.6394 129.85 72.6862 129.926 72.7674C130.002 72.8487 130.045 72.9577 130.043 73.0709C130.042 73.1841 129.998 73.2923 129.92 73.3719C129.03 74.29 128.396 75.4388 128.084 76.6977C127.773 77.9567 127.795 79.2791 128.149 80.5261C128.518 81.6082 129.01 82.6412 129.615 83.6036C130.114 84.4281 130.553 85.2905 130.926 86.1836C131.773 88.3548 131.585 91.2821 129.568 92.431C129.507 92.466 129.438 92.4845 129.368 92.4847Z" fill="white"/>
<path d="M109.261 129.91L48.0873 156.075C45.8817 157.008 43.4609 157.257 41.1207 156.791C38.7805 156.325 36.6221 155.165 34.9095 153.453C33.1968 151.74 32.0039 149.549 31.4765 147.147C30.9492 144.745 31.1102 142.236 31.9399 139.927L50.1853 88.4252C52.5442 81.8614 59.1891 78.087 65.5408 80.5252C68.5907 81.696 71.0657 84.0709 72.4214 87.1275C73.777 90.1841 73.9022 93.6721 72.7695 96.8241L64.4474 121.2L100.3 106.916" fill="#1F41BB"/>
<path d="M109.112 130.144C109.079 130.143 109.048 130.133 109.02 130.114C108.993 130.096 108.972 130.069 108.96 130.038L100.059 107.197L64.3265 121.449C64.2969 121.46 64.2646 121.463 64.2336 121.456C64.2026 121.45 64.1741 121.434 64.1517 121.41C64.1294 121.387 64.114 121.358 64.1075 121.326C64.1011 121.293 64.1038 121.26 64.1154 121.23L69.6408 106.573C69.6566 106.532 69.6877 106.498 69.7274 106.48C69.7671 106.462 69.8121 106.461 69.8525 106.477C69.8929 106.494 69.9253 106.526 69.9427 106.567C69.9601 106.608 69.9611 106.654 69.9453 106.696L64.5546 120.995L100.092 106.821C100.132 106.805 100.176 106.806 100.216 106.823C100.255 106.841 100.286 106.874 100.302 106.915L109.264 129.911C109.279 129.953 109.278 129.999 109.261 130.041C109.245 130.082 109.213 130.114 109.173 130.132C109.153 130.14 109.133 130.144 109.112 130.144Z" fill="#0C0C0C"/>
<path d="M53.1042 125.984C53.0659 125.984 53.0287 125.971 52.9991 125.945C52.9696 125.92 52.9494 125.885 52.9423 125.846C52.9352 125.808 52.9415 125.767 52.9602 125.733C52.9788 125.698 53.0086 125.672 53.0444 125.657L64.2359 121.106C64.256 121.098 64.2775 121.093 64.2992 121.094C64.3209 121.094 64.3423 121.098 64.3623 121.107C64.3823 121.116 64.4003 121.129 64.4155 121.145C64.4306 121.161 64.4425 121.18 64.4505 121.201C64.4584 121.222 64.4623 121.244 64.4618 121.266C64.4614 121.289 64.4566 121.311 64.4478 121.331C64.439 121.352 64.4264 121.37 64.4106 121.386C64.3949 121.401 64.3763 121.413 64.356 121.421L53.164 125.972C53.1449 125.98 53.1246 125.984 53.1042 125.984Z" fill="#0C0C0C"/>
<path d="M55.7107 153.019C55.6727 153.02 55.6359 153.006 55.6066 152.981C55.5772 152.956 55.5571 152.922 55.5497 152.883C55.5424 152.845 55.5482 152.805 55.5662 152.771C55.5842 152.736 55.6132 152.709 55.6483 152.694L109.051 129.819C109.071 129.81 109.092 129.806 109.114 129.806C109.135 129.806 109.156 129.81 109.176 129.819C109.196 129.827 109.214 129.84 109.229 129.856C109.244 129.871 109.256 129.89 109.265 129.91C109.273 129.931 109.277 129.953 109.277 129.975C109.277 129.997 109.273 130.019 109.264 130.04C109.256 130.06 109.244 130.079 109.229 130.094C109.214 130.11 109.196 130.122 109.176 130.131L55.773 153.006C55.7533 153.015 55.7321 153.019 55.7107 153.019Z" fill="#0C0C0C"/>
<path d="M326.832 290.695C326.722 290.695 326.616 290.65 326.538 290.569C325.953 289.964 324.999 278.866 322.429 245.821C321.377 232.3 320.384 219.529 319.66 211.767C319.608 211.213 319.4 211.148 319.331 211.127C318.339 210.818 315.321 213.277 313.637 215.43C313.568 215.519 313.467 215.575 313.358 215.587C313.248 215.599 313.138 215.566 313.053 215.494C312.967 215.423 312.912 215.319 312.9 215.206C312.889 215.093 312.921 214.979 312.99 214.891C314.105 213.467 317.736 209.734 319.57 210.305C319.94 210.42 320.401 210.752 320.487 211.685C321.212 219.453 322.205 232.228 323.257 245.752C324.819 265.833 326.588 288.582 327.169 290.015C327.214 290.079 327.241 290.155 327.246 290.233C327.252 290.312 327.237 290.391 327.202 290.461C327.167 290.532 327.114 290.591 327.049 290.632C326.984 290.673 326.909 290.695 326.832 290.695Z" fill="#494949"/>
<path d="M318.592 226.009C325.486 220.298 327.771 211.409 323.696 206.155C319.62 200.901 310.728 201.271 303.835 206.982C296.941 212.693 294.656 221.582 298.731 226.836C302.806 232.09 311.698 231.72 318.592 226.009Z" fill="#1F41BB"/>
<path opacity="0.2" d="M318.592 226.009C325.486 220.298 327.771 211.409 323.696 206.155C319.62 200.901 310.728 201.271 303.835 206.982C296.941 212.693 294.656 221.582 298.731 226.836C302.806 232.09 311.698 231.72 318.592 226.009Z" fill="white"/>
<path d="M300.663 228.173C300.624 228.173 300.585 228.161 300.552 228.139C300.519 228.117 300.492 228.086 300.475 228.049C300.459 228.012 300.452 227.971 300.458 227.931C300.463 227.89 300.479 227.852 300.504 227.821L320.151 203.335C320.168 203.313 320.189 203.295 320.213 203.281C320.238 203.268 320.264 203.259 320.292 203.256C320.319 203.253 320.347 203.256 320.373 203.264C320.4 203.273 320.424 203.286 320.445 203.305C320.467 203.323 320.484 203.345 320.497 203.371C320.51 203.396 320.517 203.423 320.52 203.452C320.522 203.48 320.519 203.509 320.51 203.536C320.502 203.563 320.488 203.588 320.47 203.61L300.823 228.095C300.804 228.119 300.779 228.139 300.752 228.152C300.724 228.166 300.694 228.173 300.663 228.173Z" fill="white"/>
<path d="M331.117 285.446C331.051 285.446 330.986 285.429 330.927 285.398C330.868 285.367 330.817 285.321 330.779 285.265C330.74 285.209 330.715 285.145 330.706 285.077C330.696 285.009 330.703 284.94 330.725 284.875L338.105 262.941C338.322 262.297 338.692 261.719 339.182 261.26C339.671 260.802 340.264 260.478 340.906 260.318C341.548 260.158 342.218 260.167 342.856 260.344C343.494 260.521 344.078 260.861 344.556 261.332L348.457 265.184C348.537 265.263 348.583 265.371 348.586 265.485C348.588 265.598 348.547 265.709 348.471 265.791C348.395 265.873 348.29 265.921 348.18 265.924C348.07 265.926 347.963 265.883 347.883 265.805L343.982 261.953C343.605 261.581 343.143 261.313 342.64 261.173C342.137 261.034 341.607 261.027 341.101 261.153C340.594 261.279 340.126 261.535 339.74 261.897C339.353 262.258 339.061 262.714 338.889 263.223L331.51 285.157C331.481 285.241 331.428 285.314 331.358 285.366C331.288 285.418 331.204 285.446 331.117 285.446Z" fill="#494949"/>
<path d="M359.358 277.328C364.467 273.149 364.164 263.957 358.68 256.797C353.197 249.638 344.61 247.222 339.501 251.401C334.392 255.581 334.696 264.772 340.179 271.932C345.663 279.091 354.25 281.507 359.358 277.328Z" fill="#1F41BB"/>
<path d="M323.479 289.296C323.386 289.296 323.295 289.263 323.222 289.204C323.149 289.144 323.097 289.06 323.076 288.966L310.691 235.451C310.607 235.086 310.426 234.752 310.17 234.487C309.914 234.221 309.592 234.033 309.239 233.945C308.886 233.856 308.517 233.869 308.171 233.984C307.825 234.098 307.517 234.308 307.279 234.592L303.462 239.151C303.426 239.194 303.383 239.229 303.334 239.254C303.285 239.279 303.232 239.295 303.178 239.299C303.123 239.303 303.068 239.296 303.017 239.278C302.965 239.26 302.917 239.232 302.876 239.195C302.834 239.158 302.801 239.113 302.776 239.063C302.752 239.012 302.737 238.957 302.733 238.901C302.729 238.845 302.736 238.788 302.753 238.735C302.77 238.681 302.798 238.632 302.833 238.589L306.651 234.03C306.989 233.627 307.427 233.329 307.919 233.167C308.41 233.005 308.935 232.986 309.436 233.113C309.936 233.239 310.394 233.506 310.758 233.883C311.121 234.261 311.378 234.735 311.498 235.253L323.882 288.768C323.908 288.879 323.89 288.996 323.832 289.093C323.774 289.19 323.682 289.259 323.575 289.286C323.543 289.293 323.511 289.297 323.479 289.296Z" fill="#494949"/>
<path d="M318.912 251.04C320.417 242.042 316.433 233.818 310.013 232.671C303.592 231.523 297.167 237.887 295.661 246.884C294.156 255.882 298.14 264.106 304.561 265.253C310.981 266.401 317.406 260.037 318.912 251.04Z" fill="#1F41BB"/>
<path d="M326.833 290.695C326.816 290.695 326.799 290.694 326.781 290.691C326.672 290.678 326.573 290.619 326.505 290.53C326.437 290.44 326.406 290.326 326.42 290.213L334.328 223.854C334.414 223.131 334.701 222.449 335.153 221.89C335.605 221.331 336.204 220.919 336.877 220.703C337.551 220.488 338.27 220.478 338.949 220.675C339.628 220.872 340.237 221.268 340.703 221.814L349.742 232.395C349.815 232.48 349.853 232.592 349.846 232.706C349.839 232.819 349.789 232.925 349.706 233.001C349.623 233.076 349.515 233.115 349.405 233.108C349.295 233.1 349.192 233.048 349.119 232.963L340.08 222.382C339.72 221.96 339.249 221.654 338.724 221.502C338.199 221.35 337.643 221.357 337.122 221.524C336.602 221.691 336.139 222.01 335.789 222.442C335.44 222.874 335.219 223.402 335.153 223.961L327.243 290.318C327.231 290.422 327.182 290.517 327.107 290.586C327.031 290.656 326.934 290.694 326.833 290.695Z" fill="#494949"/>
<path d="M359.012 238.274C362.165 232.381 358.455 224.022 350.723 219.602C342.992 215.183 334.168 216.377 331.014 222.269C327.861 228.161 331.571 236.521 339.303 240.941C347.034 245.36 355.858 244.166 359.012 238.274Z" fill="#1F41BB"/>
<path opacity="0.2" d="M359.358 277.328C364.467 273.149 364.164 263.957 358.68 256.797C353.197 249.638 344.61 247.222 339.501 251.401C334.392 255.581 334.696 264.772 340.179 271.932C345.663 279.091 354.25 281.507 359.358 277.328Z" fill="white"/>
<path opacity="0.5" d="M318.912 251.04C320.417 242.042 316.433 233.818 310.013 232.671C303.592 231.523 297.167 237.887 295.661 246.884C294.156 255.882 298.14 264.106 304.561 265.253C310.981 266.401 317.406 260.037 318.912 251.04Z" fill="white"/>
<path opacity="0.5" d="M359.012 238.274C362.165 232.381 358.455 224.022 350.723 219.602C342.992 215.183 334.168 216.377 331.014 222.269C327.861 228.161 331.571 236.521 339.303 240.941C347.034 245.36 355.858 244.166 359.012 238.274Z" fill="white"/>
<path d="M336.947 347H316.717L313.365 280.106H340.3L336.947 347Z" fill="#292A2E"/>
<path opacity="0.3" d="M336.947 347H316.717L313.365 280.106H340.3L336.947 347Z" fill="white"/>
<path d="M359.359 277.54C359.327 277.54 359.296 277.533 359.268 277.519C359.24 277.505 359.215 277.484 359.195 277.459L339.337 251.532C339.303 251.487 339.287 251.43 339.294 251.374C339.3 251.317 339.328 251.266 339.371 251.23C339.414 251.195 339.469 251.179 339.524 251.185C339.579 251.192 339.629 251.221 339.663 251.265L359.521 277.192C359.545 277.224 359.561 277.262 359.565 277.302C359.569 277.342 359.562 277.382 359.546 277.419C359.529 277.455 359.502 277.486 359.469 277.507C359.436 277.529 359.398 277.54 359.359 277.54Z" fill="white"/>
<path d="M357.691 240.351C357.647 240.351 357.604 240.336 357.569 240.308L332.158 221.134C332.136 221.117 332.117 221.096 332.103 221.072C332.089 221.048 332.079 221.022 332.075 220.994C332.071 220.966 332.072 220.937 332.078 220.91C332.085 220.883 332.096 220.857 332.112 220.834C332.128 220.811 332.149 220.792 332.172 220.777C332.195 220.763 332.221 220.753 332.248 220.748C332.275 220.744 332.303 220.745 332.329 220.752C332.356 220.759 332.381 220.771 332.403 220.787L357.814 239.963C357.848 239.99 357.874 240.028 357.887 240.07C357.9 240.113 357.9 240.159 357.886 240.202C357.873 240.244 357.847 240.282 357.812 240.308C357.777 240.335 357.735 240.349 357.691 240.35V240.351Z" fill="white"/>
<path d="M303.528 264.974C303.51 264.974 303.492 264.971 303.474 264.966C303.421 264.952 303.376 264.916 303.348 264.866C303.321 264.817 303.313 264.758 303.327 264.703L311.417 233.381C311.423 233.354 311.435 233.328 311.452 233.305C311.468 233.282 311.489 233.263 311.513 233.248C311.537 233.234 311.563 233.224 311.59 233.22C311.617 233.217 311.645 233.218 311.672 233.226C311.699 233.233 311.723 233.246 311.745 233.263C311.767 233.281 311.785 233.302 311.799 233.327C311.813 233.352 311.821 233.379 311.825 233.408C311.828 233.436 311.826 233.465 311.818 233.492L303.729 264.814C303.717 264.86 303.691 264.9 303.655 264.929C303.618 264.958 303.574 264.974 303.528 264.974Z" fill="white"/>
</g>
<defs>
<clipPath id="clip0_1_4">
<rect width="363" height="370" fill="white"/>
</clipPath>
</defs>
</svg>
